# xmcd
#
# Track frame offsets: 
#        150
#        10621
#        24095
#        37292
#        50087
#        60261
#        77627
#        93139
#        105679
#        118469
#        131478
#        146135
#        158773
#        171611
#        182886
#
# Disc length: 2631 seconds
#
# Revision: 0
# Processed by: cddbd v1.5.2PL0 Copyright (c) Steve Scherf et al.
# Submitted via: ExactAudioCopy v1.0b1
#
DISCID=ca0a450f
DTITLE=胡美儀 - 胡美儀粵調名曲
DYEAR=2012
DGENRE=粵語流行曲
TTITLE0=情花開
TTITLE1=彩雲追月
TTITLE2=青青河邊草
TTITLE3=榴槤飄香
TTITLE4=一水隔天涯
TTITLE5=紅燭淚
TTITLE6=禪院鐘聲
TTITLE7=銀塘吐艷
TTITLE8=懷舊
TTITLE9=恨悠悠
TTITLE10=夜送別
TTITLE11=叮嚀
TTITLE12=百花亭之戀
TTITLE13=谷中情
TTITLE14=紅燭淚
EXTD=
EXTT0=
EXTT1=
EXTT2=
EXTT3=
EXTT4=
EXTT5=
EXTT6=
EXTT7=
EXTT8=
EXTT9=
EXTT10=
EXTT11=
EXTT12=
EXTT13=
EXTT14=
PLAYORDER=
